<svg xmlns="http://www.w3.org/2000/svg" xmlns:xlink="http://www.w3.org/1999/xlink" width="500" zoomAndPan="magnify" viewBox="0 0 375 374.999991" height="500" preserveAspectRatio="xMidYMid meet" version="1.0"><defs><clipPath id="id1"><path d="M 50.109375 50.109375 L 205 50.109375 L 205 324.609375 L 50.109375 324.609375 Z M 50.109375 50.109375 " clip-rule="nonzero"/></clipPath><clipPath id="id2"><path d="M 133 50.109375 L 205 50.109375 L 205 324.609375 L 133 324.609375 Z M 133 50.109375 " clip-rule="nonzero"/></clipPath><clipPath id="id3"><path d="M 139 50.109375 L 324.609375 50.109375 L 324.609375 324.609375 L 139 324.609375 Z M 139 50.109375 " clip-rule="nonzero"/></clipPath></defs><g clip-path="url(#id1)"><path fill="#38b6ff" d="M 50.109375 187.261719 C 50.109375 111.710938 111.570312 50.25 187.121094 50.25 C 196.992188 50.25 204.996094 58.253906 204.996094 68.125 C 204.996094 77.996094 196.992188 85.996094 187.121094 85.996094 C 131.28125 85.996094 85.851562 131.429688 85.851562 187.269531 C 85.851562 243.105469 131.28125 288.539062 187.121094 288.539062 C 196.992188 288.539062 204.996094 296.542969 204.996094 306.414062 C 204.996094 316.28125 196.992188 324.285156 187.121094 324.285156 C 111.570312 324.273438 50.109375 262.808594 50.109375 187.261719 Z M 50.109375 187.261719 " fill-opacity="1" fill-rule="nonzero"/></g><g clip-path="url(#id2)"><path fill="#ffffff" d="M 133.3125 279.261719 C 133.3125 277.21875 133.453125 275.21875 133.703125 273.242188 C 149.222656 282.921875 167.523438 288.53125 187.121094 288.53125 C 196.992188 288.53125 204.996094 296.535156 204.996094 306.40625 C 204.996094 316.277344 196.992188 324.28125 187.121094 324.28125 C 177.261719 324.28125 167.648438 323.222656 158.375 321.238281 C 143.453125 313.175781 133.3125 297.40625 133.3125 279.261719 Z M 133.3125 93.402344 C 133.3125 96.03125 133.535156 98.613281 133.945312 101.121094 C 149.410156 91.542969 167.628906 85.988281 187.121094 85.988281 C 196.992188 85.988281 204.996094 77.984375 204.996094 68.113281 C 204.996094 58.242188 196.992188 50.25 187.121094 50.25 C 175.558594 50.25 164.328125 51.699219 153.589844 54.40625 C 141.332031 63.027344 133.3125 77.277344 133.3125 93.402344 Z M 133.3125 93.402344 " fill-opacity="1" fill-rule="nonzero"/></g><g clip-path="url(#id3)"><path fill="#000000" d="M 139.320312 97.78125 C 139.320312 90.5625 140.972656 83.300781 144.324219 76.53125 C 152.308594 60.421875 168.414062 50.351562 186.359375 50.25 L 187.117188 50.25 C 224.066406 50.25 258.714844 64.742188 284.664062 91.050781 C 310.609375 117.355469 324.621094 152.222656 324.109375 189.179688 C 323.625 224.589844 309.550781 258.066406 284.488281 283.449219 C 259.421875 308.828125 226.121094 323.3125 190.71875 324.222656 C 189.988281 324.242188 189.265625 324.257812 188.539062 324.265625 C 170.167969 324.449219 153.597656 314.445312 145.277344 298.160156 C 136.875 281.722656 138.503906 262.242188 149.519531 247.320312 C 162.421875 229.835938 169.242188 209.066406 169.242188 187.257812 C 169.242188 165.105469 162.222656 144.070312 148.945312 126.429688 C 142.578125 117.960938 139.320312 107.917969 139.320312 97.78125 Z M 288.390625 187.257812 C 288.390625 160.457031 278.070312 135.253906 259.222656 116.152344 C 240.042969 96.707031 214.433594 85.992188 187.121094 85.992188 L 186.550781 85.992188 C 180.191406 86.027344 177.296875 90.484375 176.347656 92.402344 C 175.355469 94.398438 173.488281 99.605469 177.503906 104.941406 C 195.480469 128.828125 204.984375 157.296875 204.984375 187.261719 C 204.984375 216.765625 195.746094 244.871094 178.273438 268.550781 C 174.011719 274.324219 176.035156 279.804688 177.105469 281.898438 C 178.132812 283.917969 181.277344 288.601562 188.167969 288.527344 C 188.703125 288.523438 189.253906 288.511719 189.808594 288.5 C 215.921875 287.824219 240.515625 277.113281 259.0625 258.339844 C 277.605469 239.5625 288.019531 214.832031 288.375 188.695312 C 288.386719 188.214844 288.390625 187.730469 288.390625 187.257812 Z M 288.390625 187.257812 " fill-opacity="1" fill-rule="nonzero"/></g></svg>