<svg xmlns="http://www.w3.org/2000/svg" xmlns:xlink="http://www.w3.org/1999/xlink" width="500" zoomAndPan="magnify" viewBox="0 0 375 374.999991" height="500" preserveAspectRatio="xMidYMid meet" version="1.0"><defs><clipPath id="id1"><path d="M 91 69 L 285 69 L 285 305 L 91 305 Z M 91 69 " clip-rule="nonzero"/></clipPath><clipPath id="id2"><path d="M 103.214844 100.453125 C 104.699219 90.792969 114.230469 83.515625 122.074219 80.785156 C 127.277344 78.972656 133.003906 77.617188 137.046875 77.441406 C 141.417969 77.246094 142.246094 80.523438 139.800781 81.8125 C 126.949219 88.5 115.890625 97.265625 109.445312 104.171875 C 106.710938 107.054688 102.601562 104.367188 103.214844 100.453125 Z M 146.792969 221.398438 C 148.761719 221.507812 150.597656 221.007812 152.148438 219.914062 C 157.195312 216.328125 162.417969 210.144531 165.980469 204.722656 C 170.832031 197.335938 174.242188 189.90625 176.386719 181.996094 C 178.332031 174.847656 183.269531 174.082031 185.28125 174.082031 C 186.089844 174.082031 186.898438 174.191406 187.683594 174.390625 C 192.710938 175.636719 195.246094 180.925781 194.414062 188.550781 C 193.824219 194.015625 191.136719 200.332031 189.824219 202.472656 C 188.582031 204.507812 188.1875 206.800781 188.734375 208.921875 C 189.214844 210.886719 190.460938 212.503906 192.316406 213.597656 C 193.214844 214.121094 194.175781 214.382812 195.222656 214.382812 C 198.328125 214.382812 201.910156 212.046875 203.921875 208.703125 L 204.140625 208.351562 C 208.578125 201.359375 211.332031 193.601562 211.898438 186.476562 C 212.90625 173.867188 209.277344 164.96875 200.796875 159.265625 C 196.6875 156.492188 191.355469 154.984375 185.761719 154.984375 C 182.765625 154.984375 179.792969 155.441406 177.195312 156.273438 C 165.261719 160.140625 162.703125 167.878906 159.972656 176.050781 C 158.070312 181.753906 155.929688 188.222656 151.253906 195.328125 C 148.433594 199.609375 145.808594 204.550781 142.027344 208.375 C 140.476562 209.925781 137.222656 214.035156 140.5 218.296875 C 142.226562 220.546875 144.78125 221.179688 146.640625 221.3125 Z M 120.480469 131.902344 C 122.445312 131.902344 124.261719 130.984375 125.464844 129.390625 C 139.539062 110.640625 158.617188 100.390625 182.175781 98.925781 C 183.53125 98.835938 184.996094 98.792969 186.503906 98.792969 C 198.261719 98.792969 210.214844 101.21875 218.476562 105.304688 C 219.328125 105.722656 220.246094 105.941406 221.1875 105.941406 C 223.589844 105.941406 225.820312 104.496094 226.871094 102.269531 C 227.589844 100.71875 227.679688 98.945312 227.132812 97.328125 C 226.585938 95.691406 225.425781 94.378906 223.917969 93.636719 C 214.042969 88.761719 200.011719 85.855469 186.351562 85.855469 C 184.644531 85.855469 182.984375 85.898438 181.433594 86.007812 C 154.464844 87.667969 131.671875 99.929688 115.519531 121.480469 C 114.492188 122.855469 114.03125 124.539062 114.25 126.265625 C 114.46875 127.96875 115.324219 129.5 116.632812 130.570312 C 117.683594 131.402344 118.949219 131.882812 120.261719 131.925781 C 120.285156 131.902344 120.480469 131.902344 120.480469 131.902344 Z M 100.375 213.859375 C 113.464844 207.042969 123.671875 197.226562 130.730469 184.707031 C 134.578125 177.863281 137.394531 171.636719 139.867188 166.152344 C 144.5 155.902344 148.804688 151.617188 155.03125 145.761719 C 157.785156 143.160156 158.203125 138.984375 155.949219 136.273438 C 154.507812 134.546875 151.734375 132.382812 149.417969 132.382812 C 147.425781 132.382812 145.570312 133.105469 144.171875 134.417969 C 135.363281 142.589844 130.753906 150.523438 126.117188 160.773438 C 123.648438 166.238281 121.09375 171.898438 117.550781 178.191406 C 112.765625 186.695312 106.1875 193.664062 97.96875 198.890625 C 95.828125 200.246094 94.824219 202.539062 95.390625 204.722656 C 96.113281 207.5 96.984375 210.296875 97.96875 213.03125 C 98.1875 213.640625 98.84375 214.058594 99.566406 214.058594 C 99.828125 214.078125 100.113281 213.992188 100.375 213.859375 Z M 93.839844 176.902344 C 94.144531 176.902344 94.582031 176.816406 94.976562 176.445312 C 100.460938 171.003906 105.117188 163.617188 110.078125 152.492188 C 110.734375 151.027344 110.710938 149.429688 110.035156 147.988281 C 109.269531 146.371094 107.78125 145.148438 105.902344 144.625 C 105.3125 144.449219 104.699219 144.382812 104.109375 144.382812 C 101.402344 144.382812 98.886719 146 97.773438 148.382812 C 94.125 156.183594 93.292969 160.972656 92.636719 166.433594 C 91.894531 172.574219 92.484375 176.246094 92.679688 176.445312 C 92.921875 176.726562 93.378906 176.902344 93.839844 176.902344 Z M 191.96875 267.929688 C 193.933594 267.929688 195.921875 267.207031 197.015625 266.617188 C 207.089844 261 221.210938 245.242188 227.722656 236.632812 C 256.921875 198.015625 249.183594 160.292969 233.6875 139.726562 C 222.890625 125.390625 206.609375 117.5 187.878906 117.5 C 184.273438 117.5 180.582031 117.785156 176.867188 118.375 C 172.800781 119.007812 170.636719 124.015625 171.269531 128.101562 C 171.839844 131.707031 174.988281 134.417969 178.636719 134.417969 C 179.007812 134.417969 179.402344 134.394531 179.792969 134.328125 C 182.679688 133.871094 185.519531 133.652344 188.273438 133.652344 C 208.03125 133.652344 218.105469 143.859375 221.777344 148.753906 C 234.148438 165.167969 240.003906 195.65625 215.832031 227.605469 C 209.515625 235.933594 196.949219 249.746094 188.996094 256.238281 C 187.136719 257.746094 185.9375 260.234375 185.914062 262.574219 C 185.914062 263.710938 186.199219 265.285156 187.574219 266.421875 C 188.796875 267.425781 190.261719 267.929688 191.96875 267.929688 Z M 141.765625 268.914062 C 155.121094 261.042969 172.210938 249.132812 182.570312 237.417969 C 184.078125 235.714844 184.734375 233.441406 184.320312 231.167969 C 183.925781 228.875 182.527344 226.996094 180.429688 225.835938 C 179.421875 225.289062 178.308594 225.007812 177.128906 225.007812 C 174.898438 225.007812 172.734375 226.011719 171.183594 227.757812 C 159.492188 240.871094 138.859375 253.703125 126.511719 260.410156 C 126.074219 260.652344 125.945312 261.042969 125.898438 261.261719 C 125.855469 261.480469 125.855469 261.917969 126.207031 262.3125 C 127.933594 264.148438 129.726562 265.960938 131.515625 267.710938 C 133.113281 269.261719 135.210938 270.09375 137.417969 270.09375 C 138.992188 270.09375 140.476562 269.699219 141.765625 268.914062 Z M 161.304688 289.019531 C 163.097656 289.019531 164.824219 288.515625 166.355469 287.597656 C 168.015625 286.570312 169.71875 285.5 171.46875 284.386719 C 172.976562 283.425781 174.023438 281.851562 174.308594 280.082031 C 174.613281 278.289062 174.15625 276.496094 173.019531 275.054688 C 171.859375 273.589844 170.070312 272.757812 168.082031 272.757812 C 166.726562 272.757812 165.390625 273.152344 164.253906 273.875 C 159.992188 276.605469 155.535156 279.292969 151.054688 281.894531 C 150.550781 282.179688 150.488281 282.660156 150.464844 282.855469 C 150.441406 283.097656 150.507812 283.535156 150.945312 283.859375 C 152.652344 285.105469 154.332031 286.289062 155.972656 287.402344 C 157.546875 288.449219 159.402344 289.019531 161.304688 289.019531 Z M 273.398438 216.636719 C 278.492188 201.445312 280.019531 185.339844 277.96875 168.730469 C 277.289062 163.332031 276.328125 157.605469 275.125 151.859375 C 273.769531 147.378906 272.152344 142.984375 270.316406 138.808594 C 265.160156 127.097656 257.75 116.910156 248.289062 108.539062 C 247.109375 107.492188 245.578125 106.921875 244.003906 106.921875 C 242.148438 106.921875 240.375 107.710938 239.152344 109.109375 C 236.792969 111.777344 237.03125 115.882812 239.722656 118.246094 C 247.761719 125.371094 254.078125 134.046875 258.472656 144.035156 C 268.132812 165.976562 269.269531 189.1875 261.730469 211.171875 C 261.160156 212.8125 261.269531 214.558594 262.035156 216.109375 C 262.800781 217.664062 264.109375 218.820312 265.75 219.390625 C 266.425781 219.628906 267.148438 219.738281 267.847656 219.738281 C 270.144531 219.761719 272.242188 218.558594 273.398438 216.636719 Z M 187.355469 304.515625 C 194.851562 301.234375 221.121094 288.734375 244.136719 265.722656 C 250.058594 259.625 255.324219 253.285156 259.847656 246.925781 C 260.921875 245.417969 261.292969 243.515625 260.898438 241.703125 C 260.484375 239.867188 259.347656 238.335938 257.707031 237.398438 C 256.769531 236.875 255.742188 236.589844 254.648438 236.589844 C 252.441406 236.589844 250.253906 237.726562 248.964844 239.5625 C 233.492188 261.308594 209.648438 280.890625 178.113281 297.804688 C 177.324219 298.21875 177.238281 298.964844 177.238281 299.269531 C 177.238281 299.574219 177.347656 300.316406 178.132812 300.710938 C 181.695312 302.527344 184.40625 303.75 186.046875 304.46875 C 186.261719 304.558594 186.480469 304.601562 186.699219 304.601562 C 186.917969 304.644531 187.136719 304.601562 187.355469 304.515625 Z M 117.027344 246.292969 C 118.425781 246.292969 119.800781 245.921875 121.027344 245.179688 C 122.929688 244.042969 124.828125 242.816406 126.6875 241.550781 C 128.589844 240.261719 129.835938 238.316406 130.226562 236.042969 C 130.621094 233.792969 130.074219 231.519531 128.71875 229.683594 C 127.210938 227.628906 124.785156 226.449219 122.074219 226.449219 C 120.21875 226.449219 118.402344 226.996094 116.832031 228.042969 C 113.707031 230.140625 110.425781 232.066406 107.125 233.769531 C 106.710938 233.988281 106.425781 234.339844 106.296875 234.773438 C 106.164062 235.210938 106.207031 235.671875 106.449219 236.085938 C 107.71875 238.335938 109.070312 240.566406 110.492188 242.753906 C 111.933594 244.980469 114.359375 246.292969 117.027344 246.292969 Z M 188.1875 69.53125 C 185.390625 68.984375 181.894531 68.875 178.65625 69.53125 C 175.421875 70.1875 175.816406 73.289062 178.984375 73.574219 C 180.492188 73.703125 183.445312 73.660156 183.445312 73.660156 C 183.445312 73.660156 186.394531 73.703125 187.902344 73.574219 C 191.050781 73.289062 191.007812 70.078125 188.1875 69.53125 Z M 96.003906 127.097656 C 96.941406 125.480469 98.515625 122.15625 98.515625 122.15625 C 98.515625 122.15625 100.15625 118.878906 100.875 117.152344 C 102.363281 113.503906 97.488281 111.492188 94.582031 115.949219 C 91.980469 119.949219 91.804688 123.796875 91.785156 125.414062 C 91.761719 130.703125 94.035156 130.527344 96.003906 127.097656 Z M 267.300781 104.171875 C 260.832031 97.265625 249.796875 88.523438 236.945312 81.8125 C 234.496094 80.523438 235.328125 77.265625 239.699219 77.441406 C 243.742188 77.617188 249.445312 78.972656 254.667969 80.785156 C 262.515625 83.515625 272.066406 90.792969 273.53125 100.453125 C 274.097656 104.367188 269.988281 107.054688 267.300781 104.171875 Z M 284.9375 125.433594 C 284.9375 123.816406 284.765625 119.949219 282.140625 115.972656 C 279.234375 111.511719 274.359375 113.523438 275.847656 117.171875 C 276.546875 118.921875 278.207031 122.179688 278.207031 122.179688 C 278.207031 122.179688 279.78125 125.5 280.71875 127.117188 C 282.6875 130.527344 284.9375 130.703125 284.9375 125.433594 Z M 284.9375 125.433594 " clip-rule="nonzero"/></clipPath></defs><g clip-path="url(#id1)"><g clip-path="url(#id2)"><path fill="#28283f" d="M 91.761719 68.875 L 83.304688 310.804688 L 284.9375 304.644531 L 293.398438 62.714844 Z M 91.761719 68.875 " fill-opacity="1" fill-rule="nonzero"/></g></g></svg>